<svg width="42" height="42" viewBox="0 0 42 42" fill="none" xmlns="http://www.w3.org/2000/svg">
<path fill-rule="evenodd" clip-rule="evenodd" d="M9.93125 15.0378C6.006 16.38 3.5 18.4152 3.5 20.6955C3.5 22.8095 5.6525 24.7135 9.09125 26.047L6.74975 29.9495C6.57469 30.2478 6.52442 30.6031 6.60988 30.9382C6.69534 31.2733 6.90963 31.5612 7.20615 31.7392C7.50267 31.9172 7.85747 31.971 8.19342 31.8888C8.52937 31.8067 8.81932 31.5952 9.00025 31.3005L11.6252 26.9255C11.6356 26.9082 11.6455 26.8907 11.655 26.873C14.0122 27.4942 16.7475 27.888 19.6875 27.979V33.25C19.6875 33.5981 19.8258 33.9319 20.0719 34.1781C20.3181 34.4242 20.6519 34.5625 21 34.5625C21.3481 34.5625 21.6819 34.4242 21.9281 34.1781C22.1742 33.9319 22.3125 33.5981 22.3125 33.25V27.979C25.2525 27.888 27.9878 27.4942 30.345 26.873C30.3545 26.8907 30.3644 26.9082 30.3748 26.9255L32.9998 31.3005C33.0875 31.4501 33.2041 31.5808 33.3427 31.685C33.4814 31.7893 33.6393 31.8651 33.8074 31.9079C33.9754 31.9508 34.1503 31.9599 34.3219 31.9348C34.4936 31.9096 34.6585 31.8507 34.8072 31.7614C34.9559 31.6722 35.0855 31.5543 35.1884 31.4146C35.2912 31.275 35.3654 31.1164 35.4066 30.9479C35.4478 30.7794 35.4552 30.6044 35.4284 30.433C35.4015 30.2617 35.341 30.0973 35.2502 29.9495L32.9088 26.047C36.3475 24.7135 38.5 22.8095 38.5 20.6955C38.5 18.4152 35.994 16.3783 32.0688 15.0378C31.8518 15.5453 31.4895 16.0597 30.8997 16.471C29.5208 17.43 26.775 18.375 21 18.375C15.225 18.375 12.481 17.43 11.1002 16.471C10.5824 16.1139 10.1769 15.6168 9.93125 15.0378ZM22.75 22.75C22.75 23.2141 22.5656 23.6592 22.2374 23.9874C21.9092 24.3156 21.4641 24.5 21 24.5C20.5359 24.5 20.0908 24.3156 19.7626 23.9874C19.4344 23.6592 19.25 23.2141 19.25 22.75C19.25 22.2859 19.4344 21.8408 19.7626 21.5126C20.0908 21.1844 20.5359 21 21 21C21.4641 21 21.9092 21.1844 22.2374 21.5126C22.5656 21.8408 22.75 22.2859 22.75 22.75ZM12.25 22.75C12.7141 22.75 13.1592 22.5656 13.4874 22.2374C13.8156 21.9092 14 21.4641 14 21C14 20.5359 13.8156 20.0908 13.4874 19.7626C13.1592 19.4344 12.7141 19.25 12.25 19.25C11.7859 19.25 11.3408 19.4344 11.0126 19.7626C10.6844 20.0908 10.5 20.5359 10.5 21C10.5 21.4641 10.6844 21.9092 11.0126 22.2374C11.3408 22.5656 11.7859 22.75 12.25 22.75ZM31.5 21C31.5 21.4641 31.3156 21.9092 30.9874 22.2374C30.6593 22.5656 30.2141 22.75 29.75 22.75C29.2859 22.75 28.8407 22.5656 28.5126 22.2374C28.1844 21.9092 28 21.4641 28 21C28 20.5359 28.1844 20.0908 28.5126 19.7626C28.8407 19.4344 29.2859 19.25 29.75 19.25C30.2141 19.25 30.6593 19.4344 30.9874 19.7626C31.3156 20.0908 31.5 20.5359 31.5 21Z" fill="url(#paint0_linear_439_10)"/>
<path d="M12.3463 14.0087C12.649 12.0567 13.64 10.2772 15.14 8.9919C16.6401 7.70655 18.5503 7.00004 20.5258 7H21.4743C23.4497 7.00004 25.3599 7.70655 26.86 8.9919C28.36 10.2772 29.351 12.0567 29.6537 14.0087C29.5982 14.1318 29.5106 14.2376 29.4 14.315C28.6755 14.819 26.5825 15.75 21 15.75C15.4175 15.75 13.3245 14.819 12.6 14.315C12.4894 14.2376 12.4018 14.1318 12.3463 14.0087Z" fill="url(#paint1_linear_439_10)"/>
<defs>
<linearGradient id="paint0_linear_439_10" x1="21" y1="15.0378" x2="21" y2="34.5625" gradientUnits="userSpaceOnUse">
<stop stop-color="#6BA9CC"/>
<stop offset="1" stop-color="#408A6E"/>
</linearGradient>
<linearGradient id="paint1_linear_439_10" x1="21" y1="7" x2="21" y2="15.75" gradientUnits="userSpaceOnUse">
<stop stop-color="#6BA9CC"/>
<stop offset="1" stop-color="#408A6E"/>
</linearGradient>
</defs>
</svg>
