<svg width="62" height="48" viewBox="0 0 62 48" fill="none" xmlns="http://www.w3.org/2000/svg">
<g clip-path="url(#clip0_455_212)">
<path d="M11.2714 47.7616V44.5847C11.2714 43.3666 10.5269 42.5725 9.25084 42.5725C8.61291 42.5725 7.92171 42.7843 7.44315 43.4727C7.07115 42.8902 6.53955 42.5725 5.74202 42.5725C5.21018 42.5725 4.67882 42.7312 4.2533 43.3137V42.6784H3.13681V47.7616H4.2533V44.9552C4.2533 44.0552 4.73186 43.6314 5.47634 43.6314C6.22034 43.6314 6.59283 44.108 6.59283 44.9552V47.7616H7.70931V44.9552C7.70931 44.0552 8.24067 43.6314 8.93188 43.6314C9.67636 43.6314 10.0484 44.108 10.0484 44.9552V47.7616H11.2714ZM27.8058 42.6784H25.9983V41.1429H24.8819V42.6784H23.8717V43.6842H24.8816V46.0143C24.8816 47.1793 25.3602 47.8675 26.6363 47.8675C27.1148 47.8675 27.6462 47.7088 28.0187 47.497L27.6995 46.5437C27.3805 46.7555 27.0085 46.8086 26.7426 46.8086C26.211 46.8086 25.9983 46.4909 25.9983 45.9612V43.6842H27.8058V42.6784ZM37.2695 42.5723C36.6316 42.5723 36.2063 42.8902 35.9404 43.3137V42.6784H34.8239V47.7616H35.9404V44.9023C35.9404 44.0552 36.3124 43.5786 37.0036 43.5786C37.2162 43.5786 37.4821 43.6317 37.6948 43.6845L38.0138 42.6256C37.8011 42.5725 37.4821 42.5725 37.2695 42.5725M22.9678 43.1022C22.436 42.7315 21.6918 42.5728 20.8942 42.5728C19.6184 42.5728 18.7678 43.2081 18.7678 44.2142C18.7678 45.0615 19.4058 45.5379 20.5222 45.6969L21.0538 45.7499C21.6387 45.8556 21.9577 46.0145 21.9577 46.2794C21.9577 46.6499 21.5324 46.9147 20.7879 46.9147C20.0437 46.9147 19.4588 46.6499 19.0866 46.3853L18.555 47.2324C19.1398 47.6559 19.9374 47.8677 20.7346 47.8677C22.2234 47.8677 23.0742 47.1795 23.0742 46.2263C23.0742 45.3261 22.383 44.8495 21.3195 44.6908L20.7879 44.6377C20.3094 44.5847 19.9374 44.479 19.9374 44.1613C19.9374 43.7906 20.3094 43.5788 20.8942 43.5788C21.5324 43.5788 22.1703 43.8434 22.4893 44.0024L22.9678 43.1022ZM52.6346 42.5728C51.9964 42.5728 51.5712 42.8904 51.3052 43.314V42.6786H50.1888V47.7618H51.3052V44.9026C51.3052 44.0555 51.6775 43.5788 52.3684 43.5788C52.5813 43.5788 52.8472 43.6319 53.0599 43.6847L53.3789 42.6258C53.1662 42.5728 52.8472 42.5728 52.6346 42.5728ZM38.386 45.2202C38.386 46.7558 39.4492 47.8677 41.0975 47.8677C41.8418 47.8677 42.3734 47.709 42.905 47.2854L42.3734 46.3853C41.9481 46.7029 41.5228 46.8616 41.0442 46.8616C40.1404 46.8616 39.5025 46.2263 39.5025 45.2202C39.5025 44.2672 40.1404 43.6317 41.0442 43.5788C41.5228 43.5788 41.9481 43.7375 42.3734 44.0554L42.905 43.1553C42.3734 42.7315 41.8418 42.5728 41.0975 42.5728C39.4492 42.5728 38.386 43.6847 38.386 45.2202ZM48.7003 45.2202V42.6786H47.5838V43.314C47.2115 42.8376 46.6799 42.5728 45.9887 42.5728C44.5533 42.5728 43.4368 43.6847 43.4368 45.2202C43.4368 46.7558 44.5533 47.8677 45.9887 47.8677C46.733 47.8677 47.2648 47.6031 47.5838 47.1265V47.7618H48.7003V45.2202ZM44.6063 45.2202C44.6063 44.3201 45.1912 43.5788 46.1481 43.5788C47.0519 43.5788 47.6901 44.2672 47.6901 45.2202C47.6901 46.1204 47.0519 46.8616 46.1481 46.8616C45.1912 46.8086 44.6063 46.1204 44.6063 45.2202ZM31.2618 42.5728C29.7731 42.5728 28.7096 43.6317 28.7096 45.2202C28.7096 46.8088 29.7728 47.8677 31.3148 47.8677C32.0591 47.8677 32.8036 47.6559 33.3885 47.1796L32.8566 46.3853C32.4313 46.7029 31.8997 46.9147 31.3681 46.9147C30.6769 46.9147 29.9857 46.597 29.8261 45.6966H33.6011V45.2733C33.6544 43.6317 32.6975 42.5728 31.2618 42.5728ZM31.2616 43.5258C31.9525 43.5258 32.4313 43.9496 32.5374 44.7439H29.8792C29.9855 44.0555 30.464 43.5258 31.2616 43.5258ZM58.961 45.2202V40.6665H57.8445V43.314C57.4723 42.8376 56.9407 42.5728 56.2495 42.5728C54.8141 42.5728 53.6976 43.6847 53.6976 45.2202C53.6976 46.7558 54.8141 47.8677 56.2495 47.8677C56.994 47.8677 57.5256 47.6031 57.8445 47.1265V47.7618H58.961V45.2202ZM54.8673 45.2202C54.8673 44.3201 55.452 43.5788 56.4091 43.5788C57.3129 43.5788 57.9509 44.2672 57.9509 45.2202C57.9509 46.1204 57.3129 46.8616 56.4091 46.8616C55.452 46.8086 54.8673 46.1204 54.8673 45.2202ZM17.5445 45.2202V42.6786H16.4281V43.314C16.0558 42.8376 15.5242 42.5728 14.833 42.5728C13.3976 42.5728 12.2811 43.6847 12.2811 45.2202C12.2811 46.7558 13.3976 47.8677 14.833 47.8677C15.5775 47.8677 16.1091 47.6031 16.4281 47.1265V47.7618H17.5445V45.2202ZM13.3976 45.2202C13.3976 44.3201 13.9825 43.5788 14.9393 43.5788C15.8432 43.5788 16.4813 44.2672 16.4813 45.2202C16.4813 46.1204 15.8432 46.8616 14.9393 46.8616C13.9825 46.8086 13.3976 46.1204 13.3976 45.2202Z" fill="black"/>
<path d="M22.5956 4.07715H39.3429V34.0472H22.5956V4.07715Z" fill="#FF5F00"/>
<path d="M23.6591 19.0623C23.6591 12.973 26.5299 7.57194 30.9426 4.07711C27.6997 1.53552 23.606 0 19.1401 0C8.55963 0 0 8.52494 0 19.0623C0 29.5994 8.55963 38.1245 19.1398 38.1245C23.6058 38.1245 27.6995 36.589 30.9426 34.0472C26.5299 30.6054 23.6591 25.1515 23.6591 19.0623Z" fill="#EB001B"/>
<path d="M61.9385 19.0623C61.9385 29.5994 53.3789 38.1245 42.7986 38.1245C38.3327 38.1245 34.239 36.589 30.9959 34.0472C35.4618 30.5526 38.2797 25.1515 38.2797 19.0623C38.2797 12.973 35.4085 7.57194 30.9959 4.07711C34.2388 1.53552 38.3327 0 42.7986 0C53.3789 0 61.9385 8.57801 61.9385 19.0623Z" fill="#F79E1B"/>
</g>
<defs>
<clipPath id="clip0_455_212">
<rect width="62" height="48" fill="white"/>
</clipPath>
</defs>
</svg>
