<svg width="177" height="42" viewBox="0 0 177 42" fill="none" xmlns="http://www.w3.org/2000/svg">
<path d="M61.24 11.58H77.5L69.3 23.76H76.86V28H59.92L68.1 15.8H61.24V11.58ZM84.4888 21.08C84.5288 21.6667 84.7154 22.1867 85.0488 22.64C85.3821 23.0933 85.8421 23.4533 86.4288 23.72C87.0288 23.9733 87.7354 24.1 88.5488 24.1C89.3221 24.1 90.0154 24.02 90.6288 23.86C91.2554 23.7 91.7954 23.5 92.2488 23.26C92.7154 23.02 93.0754 22.7733 93.3288 22.52L95.6888 26.28C95.3554 26.64 94.8821 26.9933 94.2688 27.34C93.6688 27.6733 92.8754 27.9467 91.8888 28.16C90.9021 28.3733 89.6554 28.48 88.1488 28.48C86.3354 28.48 84.7221 28.14 83.3088 27.46C81.8954 26.78 80.7821 25.78 79.9688 24.46C79.1554 23.14 78.7488 21.5267 78.7488 19.62C78.7488 18.02 79.0954 16.58 79.7888 15.3C80.4954 14.0067 81.5154 12.9867 82.8488 12.24C84.1821 11.48 85.7888 11.1 87.6688 11.1C89.4554 11.1 91.0021 11.4267 92.3088 12.08C93.6288 12.7333 94.6421 13.7067 95.3488 15C96.0688 16.28 96.4288 17.88 96.4288 19.8C96.4288 19.9067 96.4221 20.12 96.4088 20.44C96.4088 20.76 96.3954 20.9733 96.3688 21.08H84.4888ZM90.7088 17.9C90.6954 17.4733 90.5821 17.0533 90.3688 16.64C90.1554 16.2133 89.8354 15.8667 89.4088 15.6C88.9821 15.32 88.4354 15.18 87.7688 15.18C87.1021 15.18 86.5354 15.3133 86.0688 15.58C85.6154 15.8333 85.2688 16.1667 85.0288 16.58C84.7888 16.9933 84.6554 17.4333 84.6288 17.9H90.7088ZM110.871 11.1C112.017 11.1 113.137 11.3333 114.231 11.8C115.324 12.2667 116.224 13.0067 116.931 14.02C117.637 15.02 117.991 16.34 117.991 17.98V28H111.891V18.98C111.891 17.8067 111.611 16.9267 111.051 16.34C110.491 15.74 109.757 15.44 108.851 15.44C108.251 15.44 107.684 15.6 107.151 15.92C106.631 16.2267 106.204 16.6667 105.871 17.24C105.551 17.8 105.391 18.4467 105.391 19.18V28H99.3106V11.58H105.391V14C105.551 13.56 105.884 13.12 106.391 12.68C106.911 12.2267 107.557 11.8533 108.331 11.56C109.117 11.2533 109.964 11.1 110.871 11.1ZM125.604 28.48C124.617 28.48 123.764 28.1267 123.044 27.42C122.337 26.7 121.984 25.8467 121.984 24.86C121.984 23.8467 122.337 22.9867 123.044 22.28C123.764 21.56 124.617 21.2 125.604 21.2C126.617 21.2 127.477 21.56 128.184 22.28C128.89 22.9867 129.244 23.8467 129.244 24.86C129.244 25.8467 128.89 26.7 128.184 27.42C127.477 28.1267 126.617 28.48 125.604 28.48Z" fill="#707070"/>
<path d="M139.432 19.18C139.432 20.4867 139.679 21.5333 140.172 22.32C140.666 23.0933 141.492 23.48 142.652 23.48C143.839 23.48 144.672 23.0933 145.152 22.32C145.646 21.5333 145.892 20.4867 145.892 19.18V11.58H151.892V19.82C151.892 21.58 151.526 23.1133 150.792 24.42C150.072 25.7133 149.026 26.7133 147.652 27.42C146.279 28.1267 144.612 28.48 142.652 28.48C140.706 28.48 139.046 28.1267 137.672 27.42C136.299 26.7133 135.252 25.7133 134.532 24.42C133.812 23.1133 133.452 21.58 133.452 19.82V11.58H139.432V19.18ZM161.566 36.32H155.546V11.58H161.626V13.98C161.813 13.6067 162.166 13.2 162.686 12.76C163.22 12.3067 163.893 11.92 164.706 11.6C165.533 11.2667 166.466 11.1 167.506 11.1C169.106 11.1 170.473 11.4933 171.606 12.28C172.753 13.0667 173.633 14.12 174.246 15.44C174.86 16.7467 175.166 18.2 175.166 19.8C175.166 21.4 174.84 22.86 174.186 24.18C173.533 25.4867 172.613 26.5333 171.426 27.32C170.253 28.0933 168.866 28.48 167.266 28.48C166.12 28.48 165.14 28.28 164.326 27.88C163.526 27.4667 162.893 27.0133 162.426 26.52C161.973 26.0133 161.686 25.62 161.566 25.34V36.32ZM169.226 19.8C169.226 19.0533 169.06 18.3867 168.726 17.8C168.393 17.2 167.94 16.7333 167.366 16.4C166.806 16.0533 166.173 15.88 165.466 15.88C164.733 15.88 164.073 16.0533 163.486 16.4C162.913 16.7333 162.46 17.2 162.126 17.8C161.793 18.3867 161.626 19.0533 161.626 19.8C161.626 20.5467 161.793 21.22 162.126 21.82C162.46 22.4067 162.913 22.8667 163.486 23.2C164.073 23.5333 164.733 23.7 165.466 23.7C166.173 23.7 166.806 23.5333 167.366 23.2C167.94 22.8667 168.393 22.4067 168.726 21.82C169.06 21.22 169.226 20.5467 169.226 19.8Z" fill="#5C8374"/>
<path fill-rule="evenodd" clip-rule="evenodd" d="M9.93125 15.0378C6.006 16.38 3.5 18.4152 3.5 20.6955C3.5 22.8095 5.6525 24.7135 9.09125 26.047L6.74975 29.9495C6.57469 30.2478 6.52442 30.6031 6.60988 30.9382C6.69534 31.2733 6.90963 31.5612 7.20615 31.7392C7.50267 31.9172 7.85747 31.971 8.19342 31.8888C8.52937 31.8067 8.81932 31.5952 9.00025 31.3005L11.6252 26.9255C11.6356 26.9082 11.6455 26.8907 11.655 26.873C14.0122 27.4942 16.7475 27.888 19.6875 27.979V33.25C19.6875 33.5981 19.8258 33.9319 20.0719 34.1781C20.3181 34.4242 20.6519 34.5625 21 34.5625C21.3481 34.5625 21.6819 34.4242 21.9281 34.1781C22.1742 33.9319 22.3125 33.5981 22.3125 33.25V27.979C25.2525 27.888 27.9878 27.4942 30.345 26.873C30.3545 26.8907 30.3644 26.9082 30.3748 26.9255L32.9998 31.3005C33.0875 31.4501 33.2041 31.5808 33.3427 31.685C33.4814 31.7893 33.6393 31.8651 33.8074 31.9079C33.9754 31.9508 34.1503 31.9599 34.3219 31.9348C34.4936 31.9096 34.6585 31.8507 34.8072 31.7614C34.9559 31.6722 35.0855 31.5543 35.1884 31.4146C35.2912 31.275 35.3654 31.1164 35.4066 30.9479C35.4478 30.7794 35.4552 30.6044 35.4284 30.433C35.4015 30.2617 35.341 30.0973 35.2502 29.9495L32.9088 26.047C36.3475 24.7135 38.5 22.8095 38.5 20.6955C38.5 18.4152 35.994 16.3783 32.0688 15.0378C31.8518 15.5453 31.4895 16.0597 30.8997 16.471C29.5208 17.43 26.775 18.375 21 18.375C15.225 18.375 12.481 17.43 11.1002 16.471C10.5824 16.1139 10.1769 15.6168 9.93125 15.0378ZM22.75 22.75C22.75 23.2141 22.5656 23.6592 22.2374 23.9874C21.9092 24.3156 21.4641 24.5 21 24.5C20.5359 24.5 20.0908 24.3156 19.7626 23.9874C19.4344 23.6592 19.25 23.2141 19.25 22.75C19.25 22.2859 19.4344 21.8408 19.7626 21.5126C20.0908 21.1844 20.5359 21 21 21C21.4641 21 21.9092 21.1844 22.2374 21.5126C22.5656 21.8408 22.75 22.2859 22.75 22.75ZM12.25 22.75C12.7141 22.75 13.1592 22.5656 13.4874 22.2374C13.8156 21.9092 14 21.4641 14 21C14 20.5359 13.8156 20.0908 13.4874 19.7626C13.1592 19.4344 12.7141 19.25 12.25 19.25C11.7859 19.25 11.3408 19.4344 11.0126 19.7626C10.6844 20.0908 10.5 20.5359 10.5 21C10.5 21.4641 10.6844 21.9092 11.0126 22.2374C11.3408 22.5656 11.7859 22.75 12.25 22.75ZM31.5 21C31.5 21.4641 31.3156 21.9092 30.9874 22.2374C30.6593 22.5656 30.2141 22.75 29.75 22.75C29.2859 22.75 28.8407 22.5656 28.5126 22.2374C28.1844 21.9092 28 21.4641 28 21C28 20.5359 28.1844 20.0908 28.5126 19.7626C28.8407 19.4344 29.2859 19.25 29.75 19.25C30.2141 19.25 30.6593 19.4344 30.9874 19.7626C31.3156 20.0908 31.5 20.5359 31.5 21Z" fill="url(#paint0_linear_439_7)"/>
<path d="M12.3463 14.0087C12.649 12.0567 13.64 10.2772 15.14 8.9919C16.6401 7.70655 18.5503 7.00004 20.5258 7H21.4743C23.4497 7.00004 25.3599 7.70655 26.86 8.9919C28.36 10.2772 29.351 12.0567 29.6537 14.0087C29.5982 14.1318 29.5106 14.2376 29.4 14.315C28.6755 14.819 26.5825 15.75 21 15.75C15.4175 15.75 13.3245 14.819 12.6 14.315C12.4894 14.2376 12.4018 14.1318 12.3463 14.0087Z" fill="url(#paint1_linear_439_7)"/>
<defs>
<linearGradient id="paint0_linear_439_7" x1="21" y1="15.0378" x2="21" y2="34.5625" gradientUnits="userSpaceOnUse">
<stop stop-color="#6BA9CC"/>
<stop offset="1" stop-color="#408A6E"/>
</linearGradient>
<linearGradient id="paint1_linear_439_7" x1="21" y1="7" x2="21" y2="15.75" gradientUnits="userSpaceOnUse">
<stop stop-color="#6BA9CC"/>
<stop offset="1" stop-color="#408A6E"/>
</linearGradient>
</defs>
</svg>
